<svg id="next" xmlns="http://www.w3.org/2000/svg" width="12.635" height="8.07" viewBox="0 0 12.635 8.07">
  <path id="Path_2747" data-name="Path 2747" d="M20.5,16.817H32.135a.5.5,0,0,0,0-1H20.5a.5.5,0,0,0,0,1Z" transform="translate(-20 -12.283)" fill="#727272"/>
  <path id="Path_2748" data-name="Path 2748" d="M32.134,20.353a.5.5,0,0,0,.354-.853L29.3,16.316l3.184-3.18a.5.5,0,0,0-.707-.707l-3.537,3.533a.5.5,0,0,0,0,.708l3.537,3.536A.5.5,0,0,0,32.134,20.353Z" transform="translate(-28.097 -12.283)" fill="#727272"/>
</svg>
