<svg xmlns="http://www.w3.org/2000/svg" width="12.635" height="8.07" viewBox="0 0 12.635 8.07">
  <g id="next" transform="translate(-20 -12.283)">
    <path id="Path_2747" data-name="Path 2747" d="M32.135,16.817H20.5a.5.5,0,0,1,0-1H32.135a.5.5,0,1,1,0,1Z" fill="#727272"/>
    <path id="Path_2748" data-name="Path 2748" d="M28.6,20.353a.5.5,0,0,1-.354-.853l3.184-3.184-3.184-3.18a.5.5,0,0,1,.707-.707l3.537,3.533a.5.5,0,0,1,0,.708l-3.537,3.536A.5.5,0,0,1,28.6,20.353Z" fill="#727272"/>
  </g>
</svg>
